<svg width="20" height="20" viewBox="0 0 20 20" fill="none" xmlns="http://www.w3.org/2000/svg">
<g clip-path="url(#clip0_71_295)">
<path d="M8.88892 -0.000488281H11.1111V11.1106H8.88892V-0.000488281Z" fill="#FFCF7A"/>
<path d="M15.0009 1.33789L13.888 3.2615C16.2873 4.64923 17.7778 7.23112 17.7778 9.99935C17.7778 14.2881 14.2888 17.7771 10 17.7771C5.71123 17.7771 2.22222 14.2881 2.22222 9.99935C2.22222 7.23112 3.71267 4.64923 6.11198 3.2615L4.99913 1.33789C1.91551 3.12174 0 6.44061 0 9.99935C0 15.5132 4.48611 19.9994 10 19.9994C15.5139 19.9994 20 15.5132 20 9.99935C20 6.44061 18.0845 3.12174 15.0009 1.33789Z" fill="#FFCF7A"/>
</g>
<defs>
<clipPath id="clip0_71_295">
<rect width="20" height="20" fill="white" transform="translate(0 -0.000488281)"/>
</clipPath>
</defs>
</svg>
