<svg width="20" height="20" fill="none" xmlns="http://www.w3.org/2000/svg"><rect width="20" height="20" rx="2" fill="#ECCF94"/><g clip-path="url(#a)"><path d="M13.562 9.376h-2.937V6.444a.442.442 0 0 0-.437-.443h-.376a.443.443 0 0 0-.437.443v2.932H6.438A.437.437 0 0 0 6 9.812v.378c0 .242.196.436.438.436h2.937v2.943c0 .24.196.432.437.432h.376a.433.433 0 0 0 .437-.432v-2.943h2.937A.437.437 0 0 0 14 10.19v-.378a.437.437 0 0 0-.438-.436Z" fill="#E44B4B"/></g><defs><clipPath id="a"><path fill="#fff" transform="translate(6 6)" d="M0 0h8v8H0z"/></clipPath></defs></svg>